<?xml version="1.0" standalone="no"?>
<!DOCTYPE svg PUBLIC "-//W3C//DTD SVG 20010904//EN"
 "http://www.w3.org/TR/2001/REC-SVG-20010904/DTD/svg10.dtd">
<svg version="1.0" xmlns="http://www.w3.org/2000/svg"
 width="16.000000pt" height="16.000000pt" viewBox="0 0 16.000000 16.000000"
 preserveAspectRatio="xMidYMid meet">
<metadata>
Created by potrace 1.11, written by Peter Selinger 2001-2013
</metadata>
<g transform="translate(0.000000,16.000000) scale(0.003125,-0.003125)"
fill="#000000" stroke="none">
<path d="M2507 5085 c-35 -12 -65 -32 -92 -61 -5 -6 -55 -51 -110 -100 -55
-48 -102 -91 -105 -94 -3 -3 -45 -41 -95 -84 -49 -44 -95 -85 -100 -90 -6 -6
-51 -47 -100 -91 -50 -44 -95 -84 -101 -90 -6 -5 -48 -44 -94 -85 -46 -41 -88
-80 -94 -85 -6 -6 -49 -44 -96 -85 -47 -41 -87 -78 -90 -81 -3 -3 -99 -91
-215 -194 -115 -104 -215 -194 -221 -199 -6 -6 -46 -42 -90 -81 -43 -38 -106
-95 -139 -125 -33 -30 -96 -86 -139 -125 -43 -38 -91 -81 -106 -95 -15 -14
-60 -54 -100 -90 -41 -36 -83 -74 -95 -85 -11 -11 -41 -38 -66 -60 -168 -150
-223 -204 -239 -235 -31 -61 -14 -156 37 -202 44 -40 87 -45 371 -44 154 1
276 -3 280 -8 3 -5 5 -554 5 -1221 0 -1190 0 -1213 20 -1254 12 -26 36 -53 60
-69 l41 -27 1716 -1 c1694 -1 1718 0 1759 19 26 12 53 36 69 60 l27 41 0 1228
c0 1084 2 1228 15 1229 8 0 139 2 290 2 247 2 279 4 313 21 46 23 74 57 87
108 23 84 0 129 -122 239 -51 46 -95 86 -98 89 -3 3 -48 43 -100 90 -52 47
-97 87 -100 90 -3 3 -93 84 -200 180 -107 96 -197 177 -200 180 -3 3 -70 64
-150 135 -79 72 -151 137 -160 145 -9 8 -54 49 -100 90 -46 41 -94 84 -106 95
-12 11 -57 51 -99 89 -43 39 -83 75 -89 80 -6 6 -51 47 -101 91 -49 44 -99 89
-111 100 -40 38 -110 101 -249 225 -77 69 -149 134 -161 145 -11 11 -34 31
-50 45 -16 14 -77 69 -136 122 -58 53 -117 104 -131 113 -33 21 -94 26 -140
10z m174 -499 c58 -54 188 -171 226 -204 13 -10 66 -59 120 -108 54 -49 118
-107 143 -129 24 -22 50 -45 56 -51 6 -5 46 -41 89 -80 43 -38 90 -80 105 -94
39 -36 190 -172 210 -190 46 -40 180 -161 229 -206 48 -43 129 -117 336 -303
22 -20 83 -74 135 -121 52 -47 111 -100 130 -117 l35 -33 -55 -1 c-141 -2
-138 -3 -225 74 -44 40 -82 74 -85 77 -3 3 -43 39 -90 80 -47 41 -90 80 -96
85 -6 6 -44 39 -84 75 -40 36 -78 70 -84 75 -6 6 -74 66 -151 135 -77 68 -142
126 -145 129 -3 3 -41 37 -85 76 -44 38 -85 74 -91 80 -6 5 -44 39 -84 75 -41
36 -85 76 -100 90 -14 14 -57 52 -95 85 -39 33 -74 65 -80 71 -5 6 -50 46
-100 90 -49 43 -107 94 -128 114 -52 49 -113 80 -157 80 -50 0 -104 -32 -196
-115 -43 -38 -87 -79 -100 -90 -20 -18 -105 -94 -160 -142 -17 -14 -142 -127
-198 -178 -6 -6 -112 -100 -236 -210 -124 -110 -230 -204 -236 -210 -6 -5 -44
-39 -84 -75 -40 -36 -78 -70 -84 -75 -6 -6 -47 -42 -91 -80 -44 -39 -87 -77
-95 -85 -65 -66 -259 -228 -275 -230 -11 -1 -56 -2 -100 -1 l-79 1 35 33 c19
17 75 68 124 112 50 44 92 82 95 85 3 3 46 41 95 85 50 44 92 83 95 86 3 3 32
30 65 59 129 115 435 390 480 431 17 16 41 38 55 49 14 12 43 38 65 58 22 20
80 73 129 117 50 44 97 87 106 95 18 16 172 155 200 180 9 8 51 46 92 83 42
37 87 77 99 88 13 11 42 37 64 57 22 20 62 56 88 80 l48 43 32 -27 c18 -14 57
-50 88 -78z m-93 -573 c10 -10 54 -49 98 -88 43 -38 84 -74 90 -80 9 -8 47
-42 168 -150 7 -5 36 -32 67 -60 30 -27 90 -81 134 -120 44 -38 106 -94 140
-124 33 -30 76 -68 95 -85 136 -121 207 -184 226 -201 11 -11 36 -33 55 -49
73 -64 307 -273 353 -317 l48 -46 1 -1157 c0 -636 -3 -1159 -6 -1162 -7 -7
-2987 -7 -2994 0 -3 3 -6 527 -6 1165 l0 1159 39 34 c21 18 48 42 60 53 73 66
112 102 229 205 72 63 132 117 135 120 3 3 43 39 90 80 92 81 89 78 146 130
21 19 77 69 124 110 46 41 94 84 105 95 12 11 37 34 57 50 19 17 73 64 119
106 46 42 131 118 189 169 58 51 107 96 110 99 14 17 95 81 102 81 4 0 16 -8
26 -17z"/>
<path d="M2488 2775 c-2 -2 -23 -5 -49 -8 -139 -17 -314 -110 -421 -226 -41
-43 -53 -51 -85 -52 -196 -4 -429 -137 -549 -313 -58 -86 -98 -183 -123 -303
-12 -56 -7 -227 8 -283 65 -245 225 -432 445 -520 115 -46 162 -52 426 -55
l245 -2 3 -37 c1 -20 -1 -36 -5 -37 -5 0 -39 -2 -78 -3 -102 -4 -156 -35 -185
-106 -19 -45 -19 -64 -3 -120 14 -50 56 -93 106 -109 20 -7 149 -10 354 -8
l321 2 44 30 c82 58 96 180 29 253 -34 37 -80 55 -150 58 -31 1 -64 2 -73 3
-14 1 -18 10 -18 36 0 29 4 35 23 36 12 0 155 2 317 3 238 3 306 7 354 20 183
51 347 200 406 368 26 76 31 102 35 188 8 170 -52 321 -177 448 -85 86 -224
154 -346 168 -51 5 -62 10 -67 28 -34 119 -124 264 -215 347 -112 101 -229
159 -375 185 -66 12 -187 17 -197 9z m201 -365 c160 -58 254 -188 266 -367 5
-79 14 -108 41 -138 51 -56 113 -72 203 -51 73 16 117 13 171 -11 207 -94 202
-372 -8 -465 -44 -20 -67 -20 -716 -20 -369 0 -691 3 -716 6 -25 4 -72 20
-105 35 -245 114 -304 440 -114 629 86 86 172 119 312 120 103 2 147 20 187
80 65 96 143 160 233 187 65 21 183 18 246 -5z"/>
</g>
</svg>
